# Blender v2.83.4 OBJ File: 'table.blend'
# www.blender.org
o Cube_Cube.001
v -3.200000 2.000000 1.600000
v -3.200000 2.400000 1.600000
v -3.200000 2.000000 -1.600000
v -3.200000 2.400000 -1.600000
v 3.200000 2.000000 1.600000
v 3.200000 2.400000 1.600000
v 3.200000 2.000000 -1.600000
v 3.200000 2.400000 -1.600000
v -2.900000 0.600000 1.300000
v -2.900000 2.000000 1.300000
v -2.900000 0.600000 0.900000
v -2.900000 2.000000 0.900000
v -2.300000 0.600000 1.300000
v -2.300000 2.000000 1.300000
v -2.300000 0.600000 0.900000
v -2.300000 2.000000 0.900000
v -2.900000 0.600000 -0.900000
v -2.900000 2.000000 -0.900000
v -2.900000 0.600000 -1.300000
v -2.900000 2.000000 -1.300000
v -2.300000 0.600000 -0.900000
v -2.300000 2.000000 -0.900000
v -2.300000 0.600000 -1.300000
v -2.300000 2.000000 -1.300000
v 2.300000 0.600000 1.300000
v 2.300000 2.000000 1.300000
v 2.300000 0.600000 0.900000
v 2.300000 2.000000 0.900000
v 2.900001 0.600000 1.300000
v 2.900001 2.000000 1.300000
v 2.900001 0.600000 0.900000
v 2.900001 2.000000 0.900000
v 2.300000 0.600000 -0.900000
v 2.300000 2.000000 -0.900000
v 2.300000 0.600000 -1.300000
v 2.300000 2.000000 -1.300000
v 2.900000 0.600000 -0.900000
v 2.900000 2.000000 -0.900000
v 2.900000 0.600000 -1.300000
v 2.900000 2.000000 -1.300000
v -3.000000 0.400000 1.400000
v -3.000000 0.600000 1.400000
v -3.000000 0.400000 -1.400000
v -3.000000 0.600000 -1.400000
v -2.200000 0.400000 1.400000
v -2.200000 0.600000 1.400000
v -2.200000 0.400000 -1.400000
v -2.200000 0.600000 -1.400000
v 2.200000 0.400000 1.400000
v 2.200000 0.600000 1.400000
v 2.200000 0.400000 -1.400000
v 2.200000 0.600000 -1.400000
v 3.000000 0.400000 1.400000
v 3.000000 0.600000 1.400000
v 3.000000 0.400000 -1.400000
v 3.000000 0.600000 -1.400000
v -2.700000 0.600000 0.900000
v -2.700000 2.000000 0.900000
v -2.700000 0.600000 0.700000
v -2.700000 2.000000 0.700000
v -2.500000 0.600000 0.900000
v -2.500000 2.000000 0.900000
v -2.500000 0.600000 0.700000
v -2.500000 2.000000 0.700000
v -2.700000 0.600000 -0.700000
v -2.700000 2.000000 -0.700000
v -2.700000 0.600000 -0.900000
v -2.700000 2.000000 -0.900000
v -2.500000 0.600000 -0.700000
v -2.500000 2.000000 -0.700000
v -2.500000 0.600000 -0.900000
v -2.500000 2.000000 -0.900000
v -2.700000 0.600000 -0.100000
v -2.700000 2.000000 -0.100000
v -2.700000 0.600000 -0.300000
v -2.700000 2.000000 -0.300000
v -2.500000 0.600000 -0.100000
v -2.500000 2.000000 -0.100000
v -2.500000 0.600000 -0.300000
v -2.500000 2.000000 -0.300000
v -2.700000 0.600000 0.300000
v -2.700000 2.000000 0.300000
v -2.700000 0.600000 0.100000
v -2.700000 2.000000 0.100000
v -2.500000 0.600000 0.300000
v -2.500000 2.000000 0.300000
v -2.500000 0.600000 0.100000
v -2.500000 2.000000 0.100000
v 2.500000 0.600000 0.900000
v 2.500000 2.000000 0.900000
v 2.500000 0.600000 0.700000
v 2.500000 2.000000 0.700000
v 2.700000 0.600000 0.900000
v 2.700000 2.000000 0.900000
v 2.700000 0.600000 0.700000
v 2.700000 2.000000 0.700000
v 2.500000 0.600000 -0.700000
v 2.500000 2.000000 -0.700000
v 2.500000 0.600000 -0.900000
v 2.500000 2.000000 -0.900000
v 2.700000 0.600000 -0.700000
v 2.700000 2.000000 -0.700000
v 2.700000 0.600000 -0.900000
v 2.700000 2.000000 -0.900000
v 2.500000 0.600000 -0.100000
v 2.500000 2.000000 -0.100000
v 2.500000 0.600000 -0.300000
v 2.500000 2.000000 -0.300000
v 2.700000 0.600000 -0.100000
v 2.700000 2.000000 -0.100000
v 2.700000 0.600000 -0.300000
v 2.700000 2.000000 -0.300000
v 2.500000 0.600000 0.300000
v 2.500000 2.000000 0.300000
v 2.500000 0.600000 0.100000
v 2.500000 2.000000 0.100000
v 2.700000 0.600000 0.300000
v 2.700000 2.000000 0.300000
v 2.700000 0.600000 0.100000
v 2.700000 2.000000 0.100000
v -2.900000 0.000000 1.500000
v -2.900000 0.400000 1.300000
v -2.900000 0.000000 0.900000
v -2.900000 0.400000 0.700000
v -2.300000 0.000000 1.500000
v -2.300000 0.400000 1.300000
v -2.300000 0.000000 0.900000
v -2.300000 0.400000 0.700000
v -2.300000 0.400000 -0.700000
v -2.300000 0.000000 -0.900000
v -2.300000 0.400000 -1.300000
v -2.300000 0.000000 -1.500000
v -2.900000 0.400000 -0.700000
v -2.900000 0.000000 -0.900000
v -2.900000 0.400000 -1.300000
v -2.900000 0.000000 -1.500000
v -2.900000 0.200000 0.800000
v -2.900000 0.400000 0.700000
v -2.900000 0.200000 -0.800000
v -2.900000 0.400000 -0.700000
v -2.300000 0.200000 0.800000
v -2.300000 0.400000 0.700000
v -2.300000 0.200000 -0.800000
v -2.300000 0.400000 -0.700000
v 2.299999 0.000000 1.500000
v 2.299999 0.400000 1.300000
v 2.299999 0.000000 0.900000
v 2.299999 0.400000 0.700000
v 2.900000 0.000000 1.500000
v 2.900000 0.400000 1.300000
v 2.900000 0.000000 0.900000
v 2.900000 0.400000 0.700000
v 2.900000 0.400000 -0.700000
v 2.900000 0.000000 -0.900000
v 2.900000 0.400000 -1.300000
v 2.900000 0.000000 -1.500000
v 2.299999 0.400000 -0.700000
v 2.299999 0.000000 -0.900000
v 2.299999 0.400000 -1.300000
v 2.299999 0.000000 -1.500000
v 2.299999 0.200000 0.800000
v 2.299999 0.400000 0.700000
v 2.299999 0.200000 -0.800000
v 2.299999 0.400000 -0.700000
v 2.900000 0.200000 0.800000
v 2.900000 0.400000 0.700000
v 2.900000 0.200000 -0.800000
v 2.900000 0.400000 -0.700000
vt 0.531250 1.000000
vt 0.562500 0.750000
vt 0.562500 1.000000
vt 0.500000 1.000000
vt 0.531250 0.500000
vt 0.531250 1.000000
vt 0.531250 1.000000
vt 0.562500 0.750000
vt 0.562500 1.000000
vt 0.500000 1.000000
vt 0.531250 0.500000
vt 0.531250 1.000000
vt 0.500000 0.750000
vt -0.000000 1.000000
vt -0.000000 0.750000
vt 0.500000 0.750000
vt -0.000000 1.000000
vt -0.000000 0.750000
vt 0.609375 1.000000
vt 0.640625 0.890625
vt 0.609375 0.890625
vt 0.562500 1.000000
vt 0.609375 0.890625
vt 0.562500 0.890625
vt 0.609375 1.000000
vt 0.640625 0.890625
vt 0.562500 1.000000
vt 0.562500 0.890625
vt 0.609375 1.000000
vt 0.640625 0.890625
vt 0.609375 0.890625
vt 0.609375 1.000000
vt 0.562500 0.890625
vt 0.609375 0.890625
vt 0.609375 1.000000
vt 0.640625 0.890625
vt 0.609375 0.890625
vt 0.609375 1.000000
vt 0.562500 0.890625
vt 0.609375 0.890625
vt 0.609375 1.000000
vt 0.640625 0.890625
vt 0.609375 0.890625
vt 0.562500 1.000000
vt 0.609375 0.890625
vt 0.562500 0.890625
vt 0.609375 1.000000
vt 0.640625 0.890625
vt 0.609375 1.000000
vt 0.562500 0.890625
vt 0.609375 0.890625
vt 0.609375 1.000000
vt 0.640625 0.890625
vt 0.609375 0.890625
vt 0.562500 1.000000
vt 0.609375 0.890625
vt 0.562500 0.890625
vt 0.609375 1.000000
vt 0.640625 0.890625
vt 0.609375 1.000000
vt 0.562500 0.890625
vt 0.609375 0.890625
vt 0.875000 0.937500
vt 0.656250 0.921875
vt 0.875000 0.921875
vt 0.718750 0.921875
vt 0.656250 0.906250
vt 0.718750 0.906250
vt 0.875000 0.937500
vt 0.656250 0.921875
vt 0.875000 0.921875
vt 0.718750 0.921875
vt 0.656250 0.906250
vt 0.718750 0.906250
vt 0.656250 0.937500
vt 0.875000 1.000000
vt 0.656250 1.000000
vt 0.656250 0.937500
vt 0.875000 1.000000
vt 0.656250 1.000000
vt 0.875000 0.937500
vt 0.656250 0.921875
vt 0.875000 0.921875
vt 0.718750 0.921875
vt 0.656250 0.906250
vt 0.718750 0.906250
vt 0.875000 0.937500
vt 0.656250 0.921875
vt 0.875000 0.921875
vt 0.718750 0.921875
vt 0.656250 0.906250
vt 0.718750 0.906250
vt 0.656250 0.937500
vt 0.875000 1.000000
vt 0.656250 1.000000
vt 0.656250 0.937500
vt 0.875000 1.000000
vt 0.656250 1.000000
vt 0.640625 0.890625
vt 0.656250 1.000000
vt 0.640625 1.000000
vt 0.640625 0.890625
vt 0.656250 1.000000
vt 0.640625 1.000000
vt 0.640625 0.890625
vt 0.656250 1.000000
vt 0.640625 1.000000
vt 0.640625 0.890625
vt 0.656250 1.000000
vt 0.640625 1.000000
vt 0.640625 0.890625
vt 0.656250 1.000000
vt 0.640625 1.000000
vt 0.640625 0.890625
vt 0.656250 1.000000
vt 0.640625 1.000000
vt 0.640625 0.890625
vt 0.656250 1.000000
vt 0.640625 1.000000
vt 0.640625 0.890625
vt 0.656250 1.000000
vt 0.640625 1.000000
vt 0.640625 0.890625
vt 0.656250 1.000000
vt 0.640625 1.000000
vt 0.640625 0.890625
vt 0.656250 1.000000
vt 0.640625 1.000000
vt 0.640625 0.890625
vt 0.656250 1.000000
vt 0.640625 1.000000
vt 0.640625 0.890625
vt 0.656250 1.000000
vt 0.640625 1.000000
vt 0.640625 0.890625
vt 0.656250 1.000000
vt 0.640625 1.000000
vt 0.640625 0.890625
vt 0.656250 1.000000
vt 0.640625 1.000000
vt 0.640625 0.890625
vt 0.656250 1.000000
vt 0.640625 1.000000
vt 0.640625 0.890625
vt 0.656250 1.000000
vt 0.640625 1.000000
vt 0.640625 0.890625
vt 0.656250 1.000000
vt 0.640625 1.000000
vt 0.640625 0.890625
vt 0.656250 1.000000
vt 0.640625 1.000000
vt 0.640625 0.890625
vt 0.656250 1.000000
vt 0.640625 1.000000
vt 0.640625 0.890625
vt 0.656250 1.000000
vt 0.640625 1.000000
vt 0.640625 0.890625
vt 0.656250 1.000000
vt 0.640625 1.000000
vt 0.640625 0.890625
vt 0.656250 1.000000
vt 0.640625 1.000000
vt 0.640625 0.890625
vt 0.656250 1.000000
vt 0.640625 1.000000
vt 0.640625 0.890625
vt 0.656250 1.000000
vt 0.640625 1.000000
vt 0.640625 0.890625
vt 0.656250 1.000000
vt 0.640625 1.000000
vt 0.640625 0.890625
vt 0.656250 1.000000
vt 0.640625 1.000000
vt 0.640625 0.890625
vt 0.656250 1.000000
vt 0.640625 1.000000
vt 0.640625 0.890625
vt 0.656250 1.000000
vt 0.640625 1.000000
vt 0.875000 0.875000
vt 0.843750 0.843750
vt 0.890625 0.843750
vt 0.656250 0.875000
vt 0.609375 0.843750
vt 0.656250 0.843750
vt 0.703125 0.843750
vt 0.671875 0.875000
vt 0.656250 0.843750
vt 0.609375 0.875000
vt 0.656250 0.843750
vt 0.609375 0.843750
vt 0.562500 0.843750
vt 0.609375 0.890625
vt 0.562500 0.890625
vt 0.562500 0.843750
vt 0.609375 0.890625
vt 0.562500 0.890625
vt 0.609375 0.875000
vt 0.656250 0.843750
vt 0.609375 0.843750
vt 0.703125 0.843750
vt 0.671875 0.875000
vt 0.656250 0.843750
vt 0.656250 0.875000
vt 0.609375 0.843750
vt 0.656250 0.843750
vt 0.828125 0.875000
vt 0.710938 0.859375
vt 0.835938 0.859375
vt 0.828125 0.875000
vt 0.710938 0.859375
vt 0.835938 0.859375
vt 0.710938 0.812500
vt 0.875000 0.875000
vt 0.843750 0.843750
vt 0.890625 0.843750
vt 0.875000 0.875000
vt 0.843750 0.843750
vt 0.890625 0.843750
vt 0.609375 0.875000
vt 0.656250 0.843750
vt 0.609375 0.843750
vt 0.703125 0.843750
vt 0.671875 0.875000
vt 0.656250 0.843750
vt 0.656250 0.875000
vt 0.609375 0.843750
vt 0.562500 0.843750
vt 0.609375 0.890625
vt 0.562500 0.890625
vt 0.562500 0.843750
vt 0.609375 0.890625
vt 0.562500 0.890625
vt 0.656250 0.875000
vt 0.609375 0.843750
vt 0.656250 0.843750
vt 0.703125 0.843750
vt 0.671875 0.875000
vt 0.609375 0.875000
vt 0.656250 0.843750
vt 0.609375 0.843750
vt 0.828125 0.875000
vt 0.710938 0.859375
vt 0.835938 0.859375
vt 0.828125 0.875000
vt 0.710938 0.859375
vt 0.835938 0.859375
vt 0.710938 0.812500
vt 0.875000 0.875000
vt 0.843750 0.843750
vt 0.890625 0.843750
vt 0.531250 0.750000
vt 0.500000 0.500000
vt 0.531250 0.750000
vt 0.500000 0.500000
vt 0.500000 1.000000
vt 0.500000 1.000000
vt 0.640625 1.000000
vt 0.640625 1.000000
vt 0.640625 1.000000
vt 0.562500 1.000000
vt 0.640625 1.000000
vt 0.562500 1.000000
vt 0.640625 1.000000
vt 0.640625 1.000000
vt 0.562500 1.000000
vt 0.640625 1.000000
vt 0.640625 1.000000
vt 0.562500 1.000000
vt 0.656250 0.921875
vt 0.656250 0.937500
vt 0.656250 0.921875
vt 0.875000 0.937500
vt 0.656250 0.921875
vt 0.656250 0.937500
vt 0.656250 0.921875
vt 0.875000 0.937500
vt 0.656250 0.890625
vt 0.656250 0.890625
vt 0.656250 0.890625
vt 0.656250 0.890625
vt 0.656250 0.890625
vt 0.656250 0.890625
vt 0.656250 0.890625
vt 0.656250 0.890625
vt 0.656250 0.890625
vt 0.656250 0.890625
vt 0.656250 0.890625
vt 0.656250 0.890625
vt 0.656250 0.890625
vt 0.656250 0.890625
vt 0.656250 0.890625
vt 0.656250 0.890625
vt 0.656250 0.890625
vt 0.656250 0.890625
vt 0.656250 0.890625
vt 0.656250 0.890625
vt 0.656250 0.890625
vt 0.656250 0.890625
vt 0.656250 0.890625
vt 0.656250 0.890625
vt 0.656250 0.890625
vt 0.656250 0.890625
vt 0.656250 0.890625
vt 0.656250 0.890625
vt 0.828125 0.875000
vt 0.609375 0.875000
vt 0.718750 0.875000
vt 0.656250 0.875000
vt 0.656250 0.875000
vt 0.718750 0.875000
vt 0.609375 0.875000
vt 0.718750 0.875000
vt 0.718750 0.875000
vt 0.835938 0.812500
vt 0.828125 0.875000
vt 0.828125 0.875000
vt 0.656250 0.875000
vt 0.718750 0.875000
vt 0.609375 0.875000
vt 0.609375 0.843750
vt 0.609375 0.843750
vt 0.609375 0.875000
vt 0.718750 0.875000
vt 0.656250 0.875000
vt 0.718750 0.875000
vt 0.718750 0.875000
vt 0.835938 0.812500
vt 0.828125 0.875000
vn -1.0000 0.0000 0.0000
vn 0.0000 0.0000 -1.0000
vn 1.0000 0.0000 0.0000
vn 0.0000 0.0000 1.0000
vn 0.0000 -1.0000 0.0000
vn 0.0000 1.0000 0.0000
vn 0.0000 -0.4472 -0.8944
vn 0.0000 0.4472 0.8944
vn 0.0000 -0.4472 0.8944
vn 0.0000 0.4472 -0.8944
s off
f 2/1/1 3/2/1 1/3/1
f 4/4/2 7/5/2 3/6/2
f 8/7/3 5/8/3 7/9/3
f 6/10/4 1/11/4 5/12/4
f 7/13/5 1/14/5 3/15/5
f 4/16/6 6/17/6 8/18/6
f 10/19/1 11/20/1 9/21/1
f 12/22/2 15/23/2 11/24/2
f 16/25/3 13/26/3 15/23/3
f 14/27/4 9/21/4 13/28/4
f 18/29/1 19/30/1 17/31/1
f 20/32/2 23/33/2 19/34/2
f 24/35/3 21/36/3 23/37/3
f 22/38/4 17/39/4 21/40/4
f 26/41/1 27/42/1 25/43/1
f 28/44/2 31/45/2 27/46/2
f 32/47/3 29/48/3 31/45/3
f 30/49/4 25/50/4 29/51/4
f 34/52/1 35/53/1 33/54/1
f 36/55/2 39/56/2 35/57/2
f 40/58/3 37/59/3 39/56/3
f 38/60/4 33/61/4 37/62/4
f 42/63/1 43/64/1 41/65/1
f 44/66/2 47/67/2 43/68/2
f 48/69/3 45/70/3 47/71/3
f 46/72/4 41/73/4 45/74/4
f 47/75/5 41/76/5 43/77/5
f 44/78/6 46/79/6 48/80/6
f 50/81/1 51/82/1 49/83/1
f 52/84/2 55/85/2 51/86/2
f 56/87/3 53/88/3 55/89/3
f 54/90/4 49/91/4 53/92/4
f 55/93/5 49/94/5 51/95/5
f 52/96/6 54/97/6 56/98/6
f 58/99/1 59/100/1 57/101/1
f 60/102/2 63/103/2 59/104/2
f 64/105/3 61/106/3 63/107/3
f 66/108/1 67/109/1 65/110/1
f 72/111/3 69/112/3 71/113/3
f 70/114/4 65/115/4 69/116/4
f 74/117/1 75/118/1 73/119/1
f 76/120/2 79/121/2 75/122/2
f 80/123/3 77/124/3 79/125/3
f 78/126/4 73/127/4 77/128/4
f 82/129/1 83/130/1 81/131/1
f 84/132/2 87/133/2 83/134/2
f 88/135/3 85/136/3 87/137/3
f 86/138/4 81/139/4 85/140/4
f 90/141/1 91/142/1 89/143/1
f 92/144/2 95/145/2 91/146/2
f 96/147/3 93/148/3 95/149/3
f 98/150/1 99/151/1 97/152/1
f 104/153/3 101/154/3 103/155/3
f 102/156/4 97/157/4 101/158/4
f 106/159/1 107/160/1 105/161/1
f 108/162/2 111/163/2 107/164/2
f 112/165/3 109/166/3 111/167/3
f 110/168/4 105/169/4 109/170/4
f 114/171/1 115/172/1 113/173/1
f 116/174/2 119/175/2 115/176/2
f 120/177/3 117/178/3 119/179/3
f 118/180/4 113/181/4 117/182/4
f 122/183/1 123/184/1 121/185/1
f 124/186/7 127/187/7 123/188/7
f 127/189/3 126/190/3 125/191/3
f 126/192/8 121/193/8 125/194/8
f 127/195/5 121/196/5 123/197/5
f 130/198/6 136/199/6 134/200/6
f 131/201/9 136/202/9 132/203/9
f 130/204/1 131/205/1 132/206/1
f 133/207/10 130/208/10 134/209/10
f 138/210/1 139/211/1 137/212/1
f 144/213/3 141/214/3 143/215/3
f 143/216/5 137/212/5 139/211/5
f 135/217/3 134/218/3 136/219/3
f 146/220/1 147/221/1 145/222/1
f 148/223/7 151/224/7 147/225/7
f 151/226/3 150/227/3 149/228/3
f 150/229/8 145/230/8 149/228/8
f 151/231/5 145/232/5 147/233/5
f 154/234/6 160/235/6 158/236/6
f 155/237/9 160/238/9 156/239/9
f 154/240/1 155/241/1 156/239/1
f 157/242/10 154/243/10 158/244/10
f 162/245/1 163/246/1 161/247/1
f 168/248/3 165/249/3 167/250/3
f 167/251/5 161/247/5 163/246/5
f 159/252/3 158/253/3 160/254/3
f 2/1/1 4/255/1 3/2/1
f 4/4/2 8/256/2 7/5/2
f 8/7/3 6/257/3 5/8/3
f 6/10/4 2/258/4 1/11/4
f 7/13/5 5/259/5 1/14/5
f 4/16/6 2/260/6 6/17/6
f 10/19/1 12/261/1 11/20/1
f 12/22/2 16/25/2 15/23/2
f 16/25/3 14/262/3 13/26/3
f 14/27/4 10/19/4 9/21/4
f 18/29/1 20/263/1 19/30/1
f 20/32/2 24/264/2 23/33/2
f 24/35/3 22/265/3 21/36/3
f 22/38/4 18/266/4 17/39/4
f 26/41/1 28/267/1 27/42/1
f 28/44/2 32/47/2 31/45/2
f 32/47/3 30/268/3 29/48/3
f 30/49/4 26/269/4 25/50/4
f 34/52/1 36/270/1 35/53/1
f 36/55/2 40/58/2 39/56/2
f 40/58/3 38/271/3 37/59/3
f 38/60/4 34/272/4 33/61/4
f 42/63/1 44/78/1 43/64/1
f 44/66/2 48/273/2 47/67/2
f 48/69/3 46/274/3 45/70/3
f 46/72/4 42/275/4 41/73/4
f 47/75/5 45/276/5 41/76/5
f 44/78/6 42/63/6 46/79/6
f 50/81/1 52/96/1 51/82/1
f 52/84/2 56/277/2 55/85/2
f 56/87/3 54/278/3 53/88/3
f 54/90/4 50/279/4 49/91/4
f 55/93/5 53/280/5 49/94/5
f 52/96/6 50/81/6 54/97/6
f 58/99/1 60/281/1 59/100/1
f 60/102/2 64/282/2 63/103/2
f 64/105/3 62/283/3 61/106/3
f 66/108/1 68/284/1 67/109/1
f 72/111/3 70/285/3 69/112/3
f 70/114/4 66/286/4 65/115/4
f 74/117/1 76/287/1 75/118/1
f 76/120/2 80/288/2 79/121/2
f 80/123/3 78/289/3 77/124/3
f 78/126/4 74/290/4 73/127/4
f 82/129/1 84/291/1 83/130/1
f 84/132/2 88/292/2 87/133/2
f 88/135/3 86/293/3 85/136/3
f 86/138/4 82/294/4 81/139/4
f 90/141/1 92/295/1 91/142/1
f 92/144/2 96/296/2 95/145/2
f 96/147/3 94/297/3 93/148/3
f 98/150/1 100/298/1 99/151/1
f 104/153/3 102/299/3 101/154/3
f 102/156/4 98/300/4 97/157/4
f 106/159/1 108/301/1 107/160/1
f 108/162/2 112/302/2 111/163/2
f 112/165/3 110/303/3 109/166/3
f 110/168/4 106/304/4 105/169/4
f 114/171/1 116/305/1 115/172/1
f 116/174/2 120/306/2 119/175/2
f 120/177/3 118/307/3 117/178/3
f 118/180/4 114/308/4 113/181/4
f 122/183/1 124/309/1 123/184/1
f 124/186/7 128/310/7 127/187/7
f 127/189/3 128/311/3 126/190/3
f 126/192/8 122/312/8 121/193/8
f 127/195/5 125/194/5 121/196/5
f 130/198/6 132/203/6 136/199/6
f 131/201/9 135/313/9 136/202/9
f 130/204/1 129/314/1 131/205/1
f 133/207/10 129/315/10 130/208/10
f 138/210/1 140/316/1 139/211/1
f 144/213/3 142/317/3 141/214/3
f 143/216/5 141/318/5 137/212/5
f 135/217/3 133/319/3 134/218/3
f 146/220/1 148/320/1 147/221/1
f 148/223/7 152/321/7 151/224/7
f 151/226/3 152/322/3 150/227/3
f 150/229/8 146/323/8 145/230/8
f 151/231/5 149/324/5 145/232/5
f 154/234/6 156/325/6 160/235/6
f 155/237/9 159/326/9 160/238/9
f 154/240/1 153/327/1 155/241/1
f 157/242/10 153/328/10 154/243/10
f 162/245/1 164/329/1 163/246/1
f 168/248/3 166/330/3 165/249/3
f 167/251/5 165/331/5 161/247/5
f 159/252/3 157/332/3 158/253/3
