# Blender v2.83.4 OBJ File: 'plane.blend'
# www.blender.org
o Plane
v -26.347668 0.000000 26.347668
v 26.347668 0.000000 26.347668
v -26.347668 0.000000 -26.347668
v 26.347668 0.000000 -26.347668
v -26.347668 0.000000 -26.347668
v -26.347668 0.000000 26.347668
v 26.347668 0.000000 26.347668
v 26.347668 0.000000 -26.347668
v -26.347668 0.127022 -26.347668
v -26.347668 0.127022 26.347668
v 26.347668 0.127022 26.347668
v 26.347668 0.127022 -26.347668
vt 0.999900 0.000100
vt 0.000100 0.999900
vt 0.999900 0.999900
vt 0.999900 0.000100
vt 0.000100 0.000100
vt 0.000100 0.000100
vt 0.000100 0.000100
vt 0.000100 0.999900
vt 0.999900 0.999900
vt 0.999900 0.999900
vt 0.000100 0.000100
vt 0.999900 0.000100
vt 0.999900 0.999900
vt 0.000100 0.999900
vt 0.999900 0.000100
vt 0.000100 0.999900
vn 0.0000 -1.0000 0.0000
vn 0.0000 0.0000 -1.0000
vn 0.0000 0.0000 1.0000
vn 0.0000 0.0000 0.0000
vn 0.0000 1.0000 0.0000
vn 1.0000 0.0000 0.0000
vn -1.0000 0.0000 0.0000
s off
f 3/1/1 2/2/1 1/3/1
f 5/4/2 12/5/2 8/6/2
f 4/7/3 5/4/3 8/6/3
f 1/3/3 7/8/3 6/9/3
f 2/2/4 8/6/4 7/8/4
f 3/1/4 6/9/4 5/4/4
f 11/10/5 9/11/5 10/12/5
f 7/8/3 10/13/3 6/9/3
f 8/6/6 11/14/6 7/8/6
f 6/9/7 9/15/7 5/4/7
f 3/1/1 4/7/1 2/2/1
f 5/4/2 9/15/2 12/5/2
f 4/7/3 3/1/3 5/4/3
f 1/3/3 2/2/3 7/8/3
f 2/2/4 4/7/4 8/6/4
f 3/1/4 1/3/4 6/9/4
f 11/10/5 12/16/5 9/11/5
f 7/8/3 11/14/3 10/13/3
f 8/6/6 12/5/6 11/14/6
f 6/9/7 10/13/7 9/15/7
